<svg xmlns="http://www.w3.org/2000/svg" width="374.582" height="127.644" viewBox="0 0 374.582 127.644">
  <g id="bg-reg-chart" transform="translate(20.226 -85.649)">
    <path id="bg-reg-chart-2" data-name="bg-reg-chart" d="M-1157-1755.915h-374V-1831.2l14.666,7.429,14.667-14.858,14.666,7.528,14.666,14.76,14.667,7.429,14.667-7.429,14.666-14.858,14.666-7.43,14.667-7.429,14.666,14.858,14.666-7.43,14.666,14.858,14.667,14.858,14.666,22.288,14.666-14.858,14.667-7.429,14.666,7.429,14.666-7.429,14.667-14.858,14.666-14.52,14.667-7.767,14.666,7.429,14.667-7.429,14.666-14.858,14.666-14.858,7.333-7.43v127.292Z" transform="translate(1511 1969.208)" fill="#2ccc71" opacity="0.1"/>
    <path id="Chart" d="M0,52l14.667,7.429L29.333,44.574,44,52.1,58.667,66.861,73.333,74.29,88,66.861,102.667,52l14.667-7.429L132,37.145,146.667,52l14.667-7.429L176,59.432,190.667,74.29l14.667,22.287L220,81.719l14.667-7.429,14.667,7.429L264,74.29l14.667-14.858,14.667-14.52L308,37.145l14.667,7.429,14.667-7.429L352,22.287,366.667,7.429,374,0" transform="translate(-20 86)" fill="none" stroke="#2ccc71" stroke-width="1"/>
  </g>
</svg>
