<svg id="left-nav-5" xmlns="http://www.w3.org/2000/svg" width="16.245" height="19.228" viewBox="0 0 16.245 19.228">
  <path id="Path_20" data-name="Path 20" d="M54.2,8.74a13.442,13.442,0,0,0-3.787-4.08.9.9,0,0,0-.4-1.3L50.661.815A.646.646,0,0,0,50.534.17a.647.647,0,0,0-.646-.141l-.015,0c-.012,0-1.229.392-1.634.509a2.168,2.168,0,0,1-.977,0c-.408-.116-1.638-.506-1.651-.51l-.015,0a.648.648,0,0,0-.646.142.648.648,0,0,0-.126.65l0,.01.824,2.54a.9.9,0,0,0-.381,1.291,13.442,13.442,0,0,0-3.787,4.08,10.73,10.73,0,0,0-1.764,5.372,4.827,4.827,0,0,0,1.372,3.654,6.539,6.539,0,0,0,4.645,1.46h4.212a6.539,6.539,0,0,0,4.645-1.46,4.828,4.828,0,0,0,1.372-3.654A10.73,10.73,0,0,0,54.2,8.74ZM48.444,4.486H46.035a.3.3,0,0,1,0-.6h3.611a.3.3,0,1,1,0,.6h-1.2ZM45.39.6a.276.276,0,0,1,.047.008c.119.038,1.256.4,1.659.513a2.759,2.759,0,0,0,1.308,0C48.8,1,49.927.646,50.046.608A.275.275,0,0,1,50.093.6a.283.283,0,0,1-.011.053l0,.009-.668,2.62h-.827l.437-1.092a.3.3,0,0,0-.558-.223l-.526,1.315h-.195l-.526-1.315a.3.3,0,0,0-.558.223L47.1,3.282h-.842L45.4.649A.276.276,0,0,1,45.39.6Zm8.786,16.732a5.98,5.98,0,0,1-4.23,1.294H45.734a5.98,5.98,0,0,1-4.23-1.294,4.254,4.254,0,0,1-1.185-3.219,10.134,10.134,0,0,1,1.675-5.058,12.628,12.628,0,0,1,3.781-4.006.9.9,0,0,0,.26.038h.642l-.29.435a.3.3,0,1,0,.5.333l.512-.769h.882l.512.769a.3.3,0,0,0,.5-.333L49,5.087h.642a.9.9,0,0,0,.26-.038,12.628,12.628,0,0,1,3.781,4.006,10.134,10.134,0,0,1,1.675,5.058A4.254,4.254,0,0,1,54.176,17.331Z" transform="translate(-39.718 0.002)" fill="#ffffff"/>
  <path id="Path_21" data-name="Path 21" d="M178.9,193.99a1.247,1.247,0,0,1,1.178.607.427.427,0,0,1,.026.146.9.9,0,1,0,1.8,0,2.23,2.23,0,0,0-.133-.758,2.765,2.765,0,0,0-1.992-1.682.9.9,0,0,0-1.766,0,3.106,3.106,0,0,0-1.439.818,2.335,2.335,0,0,0-.686,1.625A2.813,2.813,0,0,0,178.9,197.3c.568,0,1.2.322,1.2.752s-.636.753-1.2.753-1.2-.322-1.2-.753a.9.9,0,1,0-1.8,0,2.335,2.335,0,0,0,.686,1.625,3.106,3.106,0,0,0,1.439.818.9.9,0,0,0,1.766,0,3.106,3.106,0,0,0,1.439-.818,2.335,2.335,0,0,0,.686-1.625,2.813,2.813,0,0,0-3.008-2.557c-.568,0-1.2-.322-1.2-.753S178.336,193.99,178.9,193.99Zm0,2.106a2.22,2.22,0,0,1,2.407,1.956,2.109,2.109,0,0,1-1.862,1.9.3.3,0,0,0-.244.3v.058a.3.3,0,1,1-.6,0v-.058a.3.3,0,0,0-.244-.3,2.109,2.109,0,0,1-1.862-1.9.3.3,0,0,1,.6,0c0,.746.81,1.353,1.8,1.353s1.8-.607,1.8-1.353-.81-1.353-1.8-1.353a2.22,2.22,0,0,1-2.407-1.956,2.109,2.109,0,0,1,1.862-1.9.3.3,0,0,0,.244-.3v-.058a.3.3,0,0,1,.6,0v.062a.3.3,0,0,0,.245.3,2.255,2.255,0,0,1,1.763,1.345,1.63,1.63,0,0,1,.1.554.3.3,0,1,1-.6,0,1.026,1.026,0,0,0-.062-.35,1.8,1.8,0,0,0-1.743-1c-1,0-1.8.607-1.8,1.353S177.909,196.1,178.9,196.1Z" transform="translate(-170.782 -184.389)" fill="#ffffff"/>
</svg>
