<svg id="left-nav-2" xmlns="http://www.w3.org/2000/svg" width="19.996" height="19.996" viewBox="0 0 19.996 19.996">
  <path id="Path_10" data-name="Path 10" d="M18.33,3H15.185A5.985,5.985,0,0,0,4.811,3H1.666A1.668,1.668,0,0,0,0,4.666v9.665A1.668,1.668,0,0,0,1.666,16h5.2L6.425,17.33H5.332A1.668,1.668,0,0,0,3.666,19v1H16.33V19a1.668,1.668,0,0,0-1.666-1.666H13.571L13.126,16h5.2A1.668,1.668,0,0,0,20,14.331V4.666A1.668,1.668,0,0,0,18.329,3ZM5.211,3.666H6.919a10.376,10.376,0,0,0-.244,2H4.683a5.283,5.283,0,0,1,.528-2ZM9.665,9v2.284A3.3,3.3,0,0,1,7.81,9ZM7.614,8.332a9.528,9.528,0,0,1-.273-2H9.665v2Zm2.717,2.951V9h1.855A3.3,3.3,0,0,1,10.331,11.283Zm0-2.951v-2h2.324a9.528,9.528,0,0,1-.273,2Zm0-2.666v-2h2.051a9.528,9.528,0,0,1,.273,2Zm0-2.666V.715A3.3,3.3,0,0,1,12.186,3ZM9.665.715V3H7.81A3.3,3.3,0,0,1,9.665.715Zm0,2.951v2H7.341a9.528,9.528,0,0,1,.273-2ZM6.674,6.332a10.378,10.378,0,0,0,.244,2H5.211a5.283,5.283,0,0,1-.528-2ZM7.1,9A5.908,5.908,0,0,0,8.12,10.983,5.355,5.355,0,0,1,5.593,9Zm5.794,0H14.4a5.355,5.355,0,0,1-2.527,1.985A5.908,5.908,0,0,0,12.895,9Zm1.891-.667H13.077a10.391,10.391,0,0,0,.244-2h1.992a5.283,5.283,0,0,1-.528,2ZM13.322,5.666a10.389,10.389,0,0,0-.244-2h1.708a5.283,5.283,0,0,1,.528,2ZM14.4,3H12.895a5.908,5.908,0,0,0-1.019-1.985A5.355,5.355,0,0,1,14.4,3ZM8.12,1.015A5.908,5.908,0,0,0,7.1,3H5.593A5.355,5.355,0,0,1,8.12,1.015ZM1.666,3.666H4.471a6,6,0,1,0,11.053,0H18.33a1,1,0,0,1,1,1v7.986H.666V4.666A1,1,0,0,1,1.666,3.666Zm13,14.33a1,1,0,0,1,1,1v.333H4.332V19a1,1,0,0,1,1-1Zm-1.8-.667H7.127L7.572,16h4.852Zm5.461-2H1.666a1,1,0,0,1-1-1V13.318H19.329v1.012A1,1,0,0,1,18.33,15.33Zm0,0" transform="translate(0)" fill="#ffffff"/>
  <path id="Path_11" data-name="Path 11" d="M200,336h.667v.667H200Zm0,0" transform="translate(-191.668 -322.007)" fill="#ffffff"/>
  <path id="Path_12" data-name="Path 12" d="M232,336h.667v.667H232Zm0,0" transform="translate(-222.335 -322.007)" fill="#ffffff"/>
  <path id="Path_13" data-name="Path 13" d="M264,336h.667v.667H264Zm0,0" transform="translate(-253.002 -322.007)" fill="#ffffff"/>
  <path id="Path_14" data-name="Path 14" d="M32.667,104.671h1.666V104H32v7.665h.667Zm0,0" transform="translate(-30.667 -99.671)" fill="#ffffff"/>
  <path id="Path_15" data-name="Path 15" d="M393.666,111.669h.667V104H392v.667h1.666Zm0,0" transform="translate(-375.67 -99.671)" fill="#ffffff"/>
</svg>
