<svg id="left-nav-3" xmlns="http://www.w3.org/2000/svg" width="20" height="13.5" viewBox="0 0 20 13.5">
  <g id="Group_8" data-name="Group 8" transform="translate(0 12.5)">
    <g id="Group_7" data-name="Group 7">
      <path id="Path_16" data-name="Path 16" d="M19.5,403.2H.5a.5.5,0,1,0,0,1h19a.5.5,0,0,0,0-1Z" transform="translate(0 -403.2)" fill="#ffffff"/>
    </g>
  </g>
  <g id="Group_10" data-name="Group 10" transform="translate(0.5 0)">
    <g id="Group_9" data-name="Group 9">
      <path id="Path_17" data-name="Path 17" d="M31.3,83.2h-3a.5.5,0,0,0,0,1H30l-8.679,7.811-3.664-3.664a.5.5,0,0,0-.707,0l-4,4a.5.5,0,0,0,.707.707L17.3,89.407l3.646,3.646a.5.5,0,0,0,.688.019L30.8,84.823V86.7a.5.5,0,1,0,1,0v-3A.5.5,0,0,0,31.3,83.2Z" transform="translate(-12.804 -83.2)" fill="#ffffff"/>
    </g>
  </g>
</svg>
