<svg xmlns="http://www.w3.org/2000/svg" width="21.616" height="19.453" viewBox="0 0 21.616 19.453">
  <path id="left-nav-13" d="M18.373,0H3.242A3.246,3.246,0,0,0,0,3.242v9.367a3.246,3.246,0,0,0,3.242,3.242h1l-.634,3.17a.36.36,0,0,0,.521.389l6.766-3.56h7.476a3.246,3.246,0,0,0,3.242-3.242V3.242A3.246,3.246,0,0,0,18.373,0ZM20.9,12.609a2.525,2.525,0,0,1-2.522,2.522H10.808a.36.36,0,0,0-.168.042l-6.175,3.25.572-2.859a.36.36,0,0,0-.353-.432H3.242A2.525,2.525,0,0,1,.721,12.609V3.242A2.525,2.525,0,0,1,3.242.72H18.373A2.525,2.525,0,0,1,20.9,3.242Zm0,0" transform="translate(0 0)" fill="#ffffff"/>
</svg>
