<svg id="left-nav-7" xmlns="http://www.w3.org/2000/svg" width="19.854" height="21.854" viewBox="0 0 19.854 21.854">
  <path id="Path_23" data-name="Path 23" d="M31.3,83.2h-3a.5.5,0,0,0,0,1H30l-8.679,7.811-3.664-3.664a.5.5,0,0,0-.707,0l-4,4a.5.5,0,0,0,.707.707L17.3,89.407l3.646,3.646a.5.5,0,0,0,.688.019L30.8,84.823V86.7a.5.5,0,1,0,1,0v-3A.5.5,0,0,0,31.3,83.2Z" transform="translate(-12.804 -83.2)" fill="#ffffff"/>
  <g id="Group_13" data-name="Group 13" transform="translate(1 6)">
    <rect id="Rectangle_3" data-name="Rectangle 3" width="1" height="9" transform="translate(0 6)" fill="#ffffff"/>
    <rect id="Rectangle_4" data-name="Rectangle 4" width="1" height="11" transform="translate(4 4)" fill="#ffffff"/>
    <rect id="Rectangle_5" data-name="Rectangle 5" width="1" height="9" transform="translate(8 6)" fill="#ffffff"/>
    <rect id="Rectangle_6" data-name="Rectangle 6" width="1" height="3" transform="translate(12 3)" fill="#ffffff"/>
    <rect id="Rectangle_7" data-name="Rectangle 7" width="1" height="7" transform="translate(16)" fill="#ffffff"/>
    <g id="Ellipse_1" data-name="Ellipse 1" transform="translate(10 7)" fill="none" stroke="#ffffff" stroke-width="1">
      <circle cx="3.5" cy="3.5" r="3.5" stroke="none"/>
      <circle cx="3.5" cy="3.5" r="3" fill="none"/>
    </g>
  </g>
  <line id="Line_2" data-name="Line 2" x2="3" y2="3" transform="translate(16.5 18.5)" fill="none" stroke="#ffffff" stroke-width="1"/>
</svg>
