<svg id="left-nav-9" xmlns="http://www.w3.org/2000/svg" width="20" height="19.341" viewBox="0 0 20 19.341">
  <path id="Path_29" data-name="Path 29" d="M180.426,290.208a.427.427,0,0,0-.426.426v.638a.426.426,0,0,0,.851,0v-.638A.427.427,0,0,0,180.426,290.208Z" transform="translate(-170.426 -275.101)" fill="#ffffff"/>
  <path id="Path_30" data-name="Path 30" d="M19.851,8.214a.392.392,0,0,0-.34-.106l-1.021.128V6.618a.361.361,0,0,0-.191-.34.357.357,0,0,0-.383-.043L10.957,8.788a3.029,3.029,0,0,1-.957.17,2.927,2.927,0,0,1-.957-.17L2.064,6.214a.478.478,0,0,0-.383.043.469.469,0,0,0-.191.34V8.214L.468,8.108a.413.413,0,0,0-.34.106A.433.433,0,0,0,0,8.533V24.065a.435.435,0,0,0,.383.426l9.234,1.021a2.312,2.312,0,0,0,.383.021,2.713,2.713,0,0,0,.4-.021l9.213-1.021A.435.435,0,0,0,20,24.065V8.533A.383.383,0,0,0,19.851,8.214Zm-19,15.468V9l.638.064V22.15a.436.436,0,0,0,.277.4L6.553,24.32Zm8.17.638L2.34,21.852V7.235L8.745,9.6a3.9,3.9,0,0,0,.83.191V19.81a.426.426,0,0,0,.851,0V9.788a3.9,3.9,0,0,0,.83-.191l6.4-2.362V21.852l-6.7,2.468A3.016,3.016,0,0,1,9.021,24.32Zm10.128-.638-5.7.638,4.787-1.766a.416.416,0,0,0,.277-.4V9.086l.638-.064Z" transform="translate(0 -6.192)" fill="#ffffff"/>
</svg>
