<svg xmlns="http://www.w3.org/2000/svg" width="21.117" height="18.169" viewBox="0 0 21.117 18.169">
  <g id="left-nav-12" transform="translate(0)">
    <path id="Path_39" data-name="Path 39" d="M83.168,6.335A3.168,3.168,0,1,0,80,3.168,3.167,3.167,0,0,0,83.168,6.335Zm0-5.631A2.464,2.464,0,1,1,80.7,3.168,2.464,2.464,0,0,1,83.168.7Zm0,0" transform="translate(-76.481)" fill="#ffffff"/>
    <path id="Path_40" data-name="Path 40" d="M314.464,28.927A2.464,2.464,0,1,0,312,26.464,2.464,2.464,0,0,0,314.464,28.927Zm0-4.223a1.76,1.76,0,1,1-1.76,1.76A1.76,1.76,0,0,1,314.464,24.7Zm0,0" transform="translate(-298.274 -22.944)" fill="#ffffff"/>
    <path id="Path_41" data-name="Path 41" d="M17.949,144H17.6a.352.352,0,0,0-.249.1l-1.161,1.161-1.18-1.161a.352.352,0,0,0-.246-.1H14.43a3.171,3.171,0,0,0-2.323,1.019A3.785,3.785,0,0,0,9.5,144a.352.352,0,0,0-.249.1l-2.567,2.567L4.12,144.1a.352.352,0,0,0-.249-.1A3.877,3.877,0,0,0,0,147.87v4.47a1.056,1.056,0,0,0,.628.966l5.346,2.375a1.75,1.75,0,0,0,1.426,0l5.346-2.376a1.056,1.056,0,0,0,.628-.965v-.594l2.5.973a1.037,1.037,0,0,0,.3.046,1.156,1.156,0,0,0,.342-.054l3.917-1.521a1.052,1.052,0,0,0,.675-.986v-3.037A3.171,3.171,0,0,0,17.949,144ZM12.67,152.34a.352.352,0,0,1-.211.322l-5.346,2.376a1.048,1.048,0,0,1-.854,0L.915,152.662A.352.352,0,0,1,.7,152.34v-4.47a3.172,3.172,0,0,1,3.027-3.164l2.71,2.71a.352.352,0,0,0,.5,0l2.71-2.71a3.149,3.149,0,0,1,1.533.478,3.1,3.1,0,0,1,.694.587,3.149,3.149,0,0,1,.794,2.1Zm7.743-2.136a.352.352,0,0,1-.226.33l-3.892,1.512a.326.326,0,0,1-.184.009l-2.737-1.064v-3.12c0-.113-.006-.225-.015-.337,0-.035-.009-.073-.013-.109-.008-.074-.018-.148-.03-.222-.008-.043-.018-.086-.027-.129-.014-.066-.028-.132-.045-.2-.012-.045-.026-.09-.039-.134-.019-.062-.038-.122-.06-.183s-.034-.09-.052-.135-.048-.115-.074-.173-.041-.088-.063-.132-.059-.111-.09-.165-.048-.085-.073-.126-.07-.109-.109-.162c-.026-.038-.051-.076-.079-.113l-.016-.023a2.467,2.467,0,0,1,1.842-.83h.186l1.327,1.306a.352.352,0,0,0,.5,0l1.3-1.3h.206a2.467,2.467,0,0,1,2.464,2.464Zm0,0" transform="translate(0 -137.664)" fill="#ffffff"/>
  </g>
</svg>
