<svg id="left-nav-8" xmlns="http://www.w3.org/2000/svg" width="21.524" height="21.415" viewBox="0 0 21.524 21.415">
  <path id="Path_24" data-name="Path 24" d="M19.865,50.526a.536.536,0,0,0-.536.536v4.76a1.61,1.61,0,0,1-1.608,1.608H2.68a1.61,1.61,0,0,1-1.608-1.608V41.852A1.61,1.61,0,0,1,2.68,40.244H7.44a.536.536,0,0,0,0-1.072H2.68A2.683,2.683,0,0,0,0,41.852V55.821A2.683,2.683,0,0,0,2.68,58.5H17.721a2.683,2.683,0,0,0,2.68-2.68v-4.76a.536.536,0,0,0-.536-.536Zm0,0" transform="translate(0 -37.086)" fill="#ffffff"/>
  <path id="Path_25" data-name="Path 25" d="M122.58.967a2.412,2.412,0,0,0-3.411,0L109.6,10.531a.536.536,0,0,0-.138.236l-1.258,4.54a.536.536,0,0,0,.66.66l4.54-1.258a.536.536,0,0,0,.236-.138l9.563-9.564a2.415,2.415,0,0,0,0-3.411Zm-11.807,9.912L118.6,3.052l2.524,2.524L113.3,13.4Zm-.5,1.012,2.017,2.017-2.79.773ZM122.451,4.25l-.569.569-2.524-2.524.569-.569a1.34,1.34,0,0,1,1.9,0l.629.629A1.342,1.342,0,0,1,122.451,4.25Zm0,0" transform="translate(-102.391 -0.261)" fill="#ffffff"/>
</svg>
