<svg id="left-nav-10" xmlns="http://www.w3.org/2000/svg" width="23.881" height="16.791" viewBox="0 0 23.881 16.791">
  <path id="Path_31" data-name="Path 31" d="M23.553,79.488a.933.933,0,0,0-1.014-.129l-5.1,2.485-4.79-5.522a.933.933,0,0,0-1.409,0l-4.79,5.522-5.1-2.485a.933.933,0,0,0-1.3,1.11l3.545,11.66a.933.933,0,0,0,.892.662H19.4a.933.933,0,0,0,.892-.661l3.545-11.66A.933.933,0,0,0,23.553,79.488ZM18.711,90.925H5.169L2.447,81.973l3.826,1.862a.933.933,0,0,0,1.113-.228l4.554-5.251,4.554,5.251a.933.933,0,0,0,1.113.228l3.826-1.862Z" transform="translate(0 -76)" fill="#ffa200"/>
</svg>
