<svg xmlns="http://www.w3.org/2000/svg" width="24.909" height="16.607" viewBox="0 0 24.909 16.607">
  <g id="swap" transform="translate(-0.003 -85.334)">
    <g id="Group_6" data-name="Group 6" transform="translate(0.002 85.334)">
      <g id="Group_5" data-name="Group 5" transform="translate(0 0)">
        <path id="Path_8" data-name="Path 8" d="M3.546,91.561H15.571a1.038,1.038,0,1,0,0-2.076H3.546l2.38-2.38a1.038,1.038,0,0,0-1.468-1.468L.306,89.789c-.024.024-.047.05-.069.076S.219,89.89.21,89.9s-.023.029-.033.045-.018.03-.027.045-.017.028-.025.042-.015.031-.023.047-.014.03-.021.045-.011.031-.017.047-.012.033-.017.049-.008.031-.012.047-.009.034-.013.051-.006.037-.008.055-.005.03-.007.045a1.044,1.044,0,0,0,0,.2c0,.015,0,.03.007.045s0,.037.008.055.008.034.013.051.007.032.012.047.011.033.017.049.011.031.017.047.014.03.021.045.014.032.023.047.016.028.025.042.018.031.027.045.022.03.033.045.018.025.028.037.044.052.068.076h0l4.152,4.152a1.038,1.038,0,1,0,1.468-1.468Z" transform="translate(-0.002 -85.334)" fill="#677285"/>
        <path id="Path_9" data-name="Path 9" d="M187.038,219.184c.01-.012.018-.025.028-.037s.022-.029.033-.044.018-.03.028-.045.017-.027.025-.042.015-.031.023-.047.014-.03.021-.045.011-.031.017-.047.012-.033.017-.049.008-.031.012-.047.009-.034.013-.051.006-.037.008-.055.005-.03.007-.045a1.047,1.047,0,0,0,0-.2c0-.015,0-.03-.007-.045s0-.037-.008-.055-.008-.034-.013-.051-.007-.032-.012-.047-.011-.033-.017-.049-.011-.031-.017-.047-.014-.03-.021-.045-.014-.032-.023-.047-.016-.028-.025-.042-.018-.031-.028-.045-.022-.03-.033-.044-.018-.025-.028-.037-.044-.051-.068-.075h0l-4.152-4.152a1.038,1.038,0,0,0-1.468,1.468l2.38,2.38H171.7a1.038,1.038,0,1,0,0,2.076H183.73l-2.38,2.38a1.038,1.038,0,0,0,1.468,1.468l4.152-4.152h0Q187.006,219.223,187.038,219.184Z" transform="translate(-162.364 -207.109)" fill="#677285"/>
      </g>
    </g>
  </g>
</svg>
